<svg width="260" height="150" viewBox="0 0 260 150" fill="none" xmlns="http://www.w3.org/2000/svg">
<path d="M0 8C0 3.58172 3.58172 0 8 0H252C256.418 0 260 3.58172 260 8V150H0V8Z" fill="#DBDBDB"/>
<path fill-rule="evenodd" clip-rule="evenodd" d="M125.093 49.034C125.543 46.7351 127.569 45.0004 130 45.0004C132.431 45.0004 134.457 46.7351 134.907 49.034C133.299 48.8468 131.661 48.7504 130 48.7504C128.339 48.7504 126.701 48.8468 125.093 49.034ZM122.522 49.4146C122.822 45.5463 126.055 42.5004 130 42.5004C133.945 42.5004 137.178 45.5463 137.477 49.4146C155.234 52.611 168.75 66.9732 168.75 84.3754H169.062C171.651 84.3754 173.75 86.4742 173.75 89.0629C173.75 91.6517 171.651 93.7504 169.062 93.7504H90.9375C88.3487 93.7504 86.25 91.6517 86.25 89.0629C86.25 86.4742 88.3487 84.3754 90.9375 84.3754H91.25C91.25 66.9732 104.766 52.611 122.522 49.4146ZM130 51.2504C109.875 51.2504 93.75 66.181 93.75 84.3754H166.25C166.25 66.181 150.125 51.2504 130 51.2504ZM90.9375 86.8754C89.7294 86.8754 88.75 87.8548 88.75 89.0629C88.75 90.271 89.7294 91.2504 90.9375 91.2504H169.062C170.271 91.2504 171.25 90.271 171.25 89.0629C171.25 87.8548 170.271 86.8754 169.062 86.8754H90.9375Z" fill="#757575"/>
</svg>
